<svg xmlns="http://www.w3.org/2000/svg" viewBox="0 0 250 50" width="250" height="50"><style>.st0{fill-rule:evenodd;clip-rule:evenodd;fill:#fff}</style><path class="st0" d="M29.5 22.2h-3.3V20c0-.7.8-.9 1.1-.9h2.1V16H27c-3.3 0-4.1 2.3-4.1 3.8v2.5h-2.4v3.2h2.4v8.6h3.3v-8.6H29l.5-3.3z"/><path fill="#FFF" d="M70.1 34c-.6 0-1.1-.2-1.5-.6-.4-.4-.6-.9-.6-1.5V18.1c0-.6.2-1.1.6-1.5.4-.4.9-.6 1.5-.6h5.8c.7 0 1.4.1 2 .3.6.2 1.2.5 1.7 1 .5.4.9.9 1.1 1.5.3.6.4 1.3.4 2.1 0 .6-.1 1-.2 1.4-.1.4-.3.7-.5 1-.2.3-.4.5-.6.6l-.6.3c.2.1.4.2.7.4.3.2.6.5.9.9.3.4.5.8.8 1.4.2.6.3 1.2.3 1.9 0 .8-.2 1.4-.5 2.1-.3.6-.7 1.2-1.3 1.6-.5.4-1.1.8-1.8 1.1-.5.3-1.3.4-2 .4h-6.2zm2.2-14.1V23h3.2c.4 0 .8-.1 1.1-.5.3-.3.5-.7.5-1.1 0-.4-.2-.8-.5-1.1-.3-.3-.7-.5-1.1-.5h-3.2zm0 6.7v3.5h3.6c.5 0 .9-.2 1.3-.5.3-.3.5-.8.5-1.2 0-.5-.2-.9-.5-1.3-.4-.3-.8-.5-1.3-.5h-3.6zm64.2-8.8c-.4.2-1.5.7-2.5.8.7-.4 1.6-1.6 1.9-2.6-.6.4-2.1 1.1-2.8 1.1-.8-.9-2-1.5-3.3-1.5-2.5 0-4.5 2.2-4.5 4.8 0 .4 0 .7.1 1.1-3.4-.1-7.4-1.9-9.6-5-1.4 2.5-.2 5.3 1.4 6.4-.5 0-1.5-.1-2-.5 0 1.7.7 3.9 3.5 4.7-.5.3-1.5.2-1.9.2.1 1.4 2 3.3 4.1 3.3-.7.9-3.2 2.5-6.3 2 2.1 1.4 4.5 2.1 7.1 2.1 7.3 0 13-6.3 12.7-14.1v-.2c.6-.6 1.5-1.5 2.1-2.6z"/><path class="st0" d="M178.5 29.9c1.7-.5 3-1.2 3.4-1.4.6-.3.9-.9.9-1.6 0-1-.8-1.8-1.8-1.8-.3 0-.5.1-.8.2h-.1c-1 .6-2.8 1.3-4.4 1.3-1.6 0-3.4-.7-4.4-1.3h-.1c-.2-.1-.5-.2-.8-.2-1 0-1.8.8-1.8 1.8 0 .7.4 1.3.9 1.6.4.2 1.7 1 3.4 1.4-1.6 1.7-3.4 3.5-3.4 3.6-.7.7-.7 1.8 0 2.5s1.8.7 2.5-.1c0 0 1.9-2 3.5-3.7 1.6 1.7 3.5 3.6 3.5 3.7.7.7 1.8.7 2.5.1.7-.7.7-1.8 0-2.5.4-.1-1.4-2-3-3.6zm-2.7-17.4c-3.4 0-6.2 2.8-6.2 6.2 0 3.4 2.8 6.2 6.2 6.2 3.4 0 6.2-2.8 6.2-6.2 0-3.4-2.8-6.2-6.2-6.2zm0 8.8c-1.4 0-2.6-1.2-2.6-2.6 0-1.4 1.1-2.6 2.6-2.6 1.4 0 2.6 1.2 2.6 2.6 0 1.4-1.1 2.6-2.6 2.6z"/><path fill="#FFF" d="M220.3 27h5.6c-.8 2.3-2.8 3.7-5.3 3.7-3.1 0-5.7-2.5-5.7-5.7s2.6-5.7 5.7-5.7c1.6 0 3 .6 4 1.7l2.8-2.8c-1.8-1.7-4.2-2.8-6.9-2.8-5.4 0-9.7 4.3-9.7 9.7s4.3 9.7 9.7 9.7c5.4 0 9.7-4.5 9.7-9.7s0-1.2-.2-1.8h-9.8V27zm21.1-3.5H238V20h-2.7v3.5h-3.5v2.2h3.5v3.5h2.7v-3.5h3.4v-2.2z"/></svg>